<svg width="30" height="30" viewBox="0 0 30 30" fill="none" xmlns="http://www.w3.org/2000/svg">
<g clip-path="url(#clip0_39_234)">
<path d="M14.9999 9.0188C12.2544 9.0188 10.0208 11.2524 10.0208 13.9979C10.0208 16.7434 12.2544 18.977 14.9999 18.977C17.7453 18.977 19.979 16.7434 19.979 13.9979C19.979 11.2524 17.7453 9.0188 14.9999 9.0188ZM14.9999 18.0376C12.7724 18.0376 10.9602 16.2254 10.9602 13.9979C10.9602 11.7704 12.7724 9.95817 14.9999 9.95817C17.2274 9.95817 19.0396 11.7704 19.0396 13.9979C19.0396 16.2254 17.2273 18.0376 14.9999 18.0376Z" fill="white"/>
<path d="M15 13.5282C14.7064 13.5282 14.4676 13.2893 14.4676 12.9958C14.4676 12.7022 14.7064 12.4634 15 12.4634H16.002C16.2614 12.4634 16.4718 12.2532 16.4718 11.9937C16.4718 11.7342 16.2615 11.5239 16.002 11.5239H15.4696V10.9915C15.4696 10.7321 15.2593 10.5218 14.9999 10.5218C14.7404 10.5218 14.5301 10.732 14.5301 10.9915V11.6012C13.9483 11.7977 13.5281 12.3484 13.5281 12.9957C13.5281 13.8073 14.1883 14.4676 14.9999 14.4676C15.2934 14.4676 15.5323 14.7064 15.5323 14.9999C15.5323 15.2935 15.2934 15.5323 14.9999 15.5323H13.9978C13.7384 15.5323 13.5281 15.7426 13.5281 16.0021C13.5281 16.2616 13.7384 16.4718 13.9978 16.4718H14.5302V17.0042C14.5302 17.2636 14.7405 17.4739 15 17.4739C15.2594 17.4739 15.4697 17.2637 15.4697 17.0042V16.3945C16.0515 16.198 16.4718 15.6473 16.4718 15C16.4718 14.1884 15.8115 13.5282 15 13.5282Z" fill="white"/>
<path d="M29.8142 11.1184L27.9959 9.73905V5.9812C27.9959 5.72175 27.7856 5.51145 27.5261 5.51145H22.4232L15.8896 0.55489C15.3659 0.157566 14.6343 0.157566 14.1105 0.55489L7.57688 5.51151H2.47395C2.21455 5.51151 2.0042 5.72175 2.0042 5.98126V9.73911L0.185801 11.1184C0.0700781 11.2064 0 11.3473 0 11.4927L0 29.5303C0 29.7898 0.210293 30 0.469746 30H20.5115C20.7709 30 20.9813 29.7898 20.9813 29.5303C20.9813 29.2708 20.771 29.0605 20.5115 29.0605H0.939434V12.3371L27.8828 29.0606H23.0167C22.7573 29.0606 22.5469 29.2708 22.5469 29.5303C22.5469 29.7898 22.7572 30.0001 23.0167 30.0001H29.5289C29.7114 30.0001 29.8802 29.8917 29.9567 29.7266C29.9848 29.6656 30.0001 29.5977 30.0001 29.5303V11.4927C30 11.3473 29.9299 11.2064 29.8142 11.1184ZM2.0042 11.8923L1.29803 11.4539L2.0042 10.9183V11.8923ZM27.9958 10.9183L28.702 11.4539L27.9958 11.8923V10.9183ZM4.00834 10.4906V13.1363L2.94363 12.4754V6.45095H12.4948C12.7542 6.45095 12.9645 6.24071 12.9645 5.9812C12.9645 5.72169 12.7542 5.51145 12.4948 5.51145H9.13125L14.6783 1.30343C14.8677 1.1597 15.1322 1.1597 15.3217 1.30343L20.8688 5.51145H15C14.7406 5.51145 14.5303 5.72169 14.5303 5.9812C14.5303 6.24071 14.7406 6.45095 15 6.45095H27.0564V12.4754L25.9917 13.1363V10.4906C25.9917 10.2312 25.7814 10.0209 25.5219 10.0209C24.3996 10.0209 23.4864 9.10782 23.4864 7.9854C23.4864 7.72595 23.2761 7.51565 23.0167 7.51565H6.98332C6.72393 7.51565 6.51358 7.72589 6.51358 7.9854C6.51358 9.10782 5.60045 10.0209 4.47809 10.0209C4.21869 10.0209 4.00834 10.2311 4.00834 10.4906ZM4.94783 13.7194V10.9232C6.21276 10.7217 7.21447 9.72001 7.41604 8.45509H22.5841C22.7856 9.72001 23.7873 10.7217 25.0523 10.9232V13.7194L15.0001 19.9587L4.94783 13.7194ZM29.0606 28.6859L15.8907 20.5115L29.0606 12.3371V28.6859Z" fill="white"/>
<path d="M22.0145 1.00207H21.4821V0.469746C21.4821 0.210293 21.2719 0 21.0124 0C20.7529 0 20.5427 0.210234 20.5427 0.469746V1.00213H20.0103C19.7509 1.00213 19.5405 1.21236 19.5405 1.47188C19.5405 1.73133 19.7508 1.94162 20.0103 1.94162H20.5427V2.474C20.5427 2.73346 20.7529 2.94375 21.0124 2.94375C21.2719 2.94375 21.4821 2.73352 21.4821 2.474V1.94162H22.0145C22.2739 1.94162 22.4843 1.73139 22.4843 1.47188C22.4843 1.21236 22.2739 1.00207 22.0145 1.00207Z" fill="white"/>
<path d="M5.98108 2.50524H5.4487V1.97286C5.4487 1.71341 5.23841 1.50311 4.97896 1.50311C4.7195 1.50311 4.50921 1.71335 4.50921 1.97286V2.50524H3.97683C3.71743 2.50524 3.50708 2.71548 3.50708 2.97499C3.50708 3.23444 3.71737 3.44473 3.97683 3.44473H4.50921V3.97712C4.50921 4.23657 4.7195 4.44686 4.97896 4.44686C5.23841 4.44686 5.4487 4.23663 5.4487 3.97712V3.44473H5.98108C6.24048 3.44473 6.45083 3.2345 6.45083 2.97499C6.45083 2.71548 6.24054 2.50524 5.98108 2.50524Z" fill="white"/>
<path d="M26.0231 2.50524H25.4907V1.97286C25.4907 1.71341 25.2804 1.50311 25.0209 1.50311C24.7616 1.50311 24.5512 1.71335 24.5512 1.97286V2.50524H24.0188C23.7594 2.50524 23.5491 2.71548 23.5491 2.97499C23.5491 3.23444 23.7594 3.44473 24.0188 3.44473H24.5512V3.97712C24.5512 4.23657 24.7615 4.44686 25.0209 4.44686C25.2803 4.44686 25.4907 4.23663 25.4907 3.97712V3.44473H26.0231C26.2825 3.44473 26.4928 3.2345 26.4928 2.97499C26.4928 2.71548 26.2825 2.50524 26.0231 2.50524Z" fill="white"/>
<path d="M9.98963 1.00207H9.45725V0.469746C9.45725 0.210293 9.24695 0 8.9875 0C8.72805 0 8.51775 0.210234 8.51775 0.469746V1.00213H7.98537C7.72598 1.00213 7.51562 1.21236 7.51562 1.47188C7.51562 1.73133 7.72592 1.94162 7.98537 1.94162H8.51775V2.474C8.51775 2.73346 8.72805 2.94375 8.9875 2.94375C9.24695 2.94375 9.45725 2.73352 9.45725 2.474V1.94162H9.98963C10.249 1.94162 10.4594 1.73139 10.4594 1.47188C10.4593 1.21236 10.249 1.00207 9.98963 1.00207Z" fill="white"/>
</g>
<defs>
<clipPath id="clip0_39_234">
<rect width="30" height="30" fill="white"/>
</clipPath>
</defs>
</svg>
