<svg width="24" height="24" viewBox="0 0 24 24" fill="none" xmlns="http://www.w3.org/2000/svg">
<rect width="24" height="24" rx="12" transform="matrix(1 0 0 -1 0 24)" fill="white" fill-opacity="0.15"/>
<path fill-rule="evenodd" clip-rule="evenodd" d="M8.22678 10.1483C8.27903 10.2006 8.3411 10.2422 8.40944 10.2706C8.47778 10.2989 8.55104 10.3135 8.62503 10.3135C8.69902 10.3135 8.77228 10.2989 8.84062 10.2706C8.90895 10.2422 8.97103 10.2006 9.02328 10.1483L12 7.17038L14.9768 10.1483C15.0824 10.2539 15.2257 10.3132 15.375 10.3132C15.5244 10.3132 15.6677 10.2539 15.7733 10.1483C15.8789 10.0426 15.9382 9.89937 15.9382 9.75C15.9382 9.60063 15.8789 9.45737 15.7733 9.35175L12.3983 5.97675C12.346 5.92437 12.284 5.88281 12.2156 5.85445C12.1473 5.82609 12.074 5.8115 12 5.8115C11.926 5.8115 11.8528 5.82609 11.7844 5.85445C11.7161 5.88281 11.654 5.92437 11.6018 5.97675L8.22678 9.35175C8.17439 9.404 8.13283 9.46608 8.10448 9.53441C8.07612 9.60275 8.06152 9.67601 8.06152 9.75C8.06152 9.82399 8.07612 9.89725 8.10448 9.96559C8.13283 10.0339 8.17439 10.096 8.22678 10.1483Z" fill="white"/>
<path fill-rule="evenodd" clip-rule="evenodd" d="M12 18.1875C12.1492 18.1875 12.2923 18.1282 12.3977 18.0227C12.5032 17.9173 12.5625 17.7742 12.5625 17.625V7.5C12.5625 7.35082 12.5032 7.20774 12.3977 7.10225C12.2923 6.99676 12.1492 6.9375 12 6.9375C11.8508 6.9375 11.7077 6.99676 11.6023 7.10225C11.4968 7.20774 11.4375 7.35082 11.4375 7.5V17.625C11.4375 17.7742 11.4968 17.9173 11.6023 18.0227C11.7077 18.1282 11.8508 18.1875 12 18.1875Z" fill="white"/>
</svg>
