<svg width="30" height="30" viewBox="0 0 30 30" fill="none" xmlns="http://www.w3.org/2000/svg">
<path d="M20.1501 11.8083V11.7667C20.1501 9.26667 18.2001 7.43334 15.2501 7.43334C14.3471 7.41841 13.4518 7.60256 12.628 7.97271C11.8042 8.34286 11.072 8.88991 10.4835 9.575C10.4017 9.65077 10.336 9.74218 10.2902 9.84381C10.2444 9.94544 10.2194 10.0552 10.2168 10.1667C10.2167 10.2695 10.2374 10.3713 10.2775 10.466C10.3175 10.5606 10.3763 10.6463 10.4501 10.7178C10.524 10.7893 10.6115 10.8453 10.7074 10.8823C10.8033 10.9193 10.9057 10.9367 11.0085 10.9333C11.2286 10.9279 11.4391 10.8419 11.6001 10.6917C12.0455 10.1697 12.5987 9.75049 13.2216 9.46278C13.8445 9.17506 14.5223 9.02571 15.2085 9.025C17.1751 9.025 18.4001 10.2917 18.4001 11.8667V11.9083C18.4001 13.75 16.9335 14.775 14.6168 14.95C14.523 14.9536 14.431 14.977 14.3469 15.0186C14.2627 15.0603 14.1883 15.1192 14.1285 15.1916C14.0687 15.264 14.0249 15.3481 13.9999 15.4386C13.9749 15.5291 13.9693 15.6239 13.9835 15.7167C13.9835 15.7167 13.9835 17.65 13.9835 18.0083C14.0042 18.2146 14.1011 18.4057 14.2551 18.5444C14.4092 18.6831 14.6095 18.7594 14.8168 18.7583H14.9085C15.1147 18.7376 15.3059 18.6407 15.4446 18.4866C15.5832 18.3326 15.6595 18.1323 15.6585 17.925V16.2083C18.1251 15.8333 20.1501 14.5417 20.1501 11.8083Z" fill="white"/>
<path d="M14.8168 22.875C15.3921 22.875 15.8585 22.4087 15.8585 21.8334C15.8585 21.2581 15.3921 20.7917 14.8168 20.7917C14.2415 20.7917 13.7751 21.2581 13.7751 21.8334C13.7751 22.4087 14.2415 22.875 14.8168 22.875Z" fill="white"/>
<path d="M27.6 10.675C27.0936 10.907 26.5582 11.0696 26.0083 11.1583C26.8877 13.662 26.8906 16.3902 26.0163 18.8956C25.1421 21.4011 23.4427 23.5353 21.1967 24.9485C18.9506 26.3616 16.2912 26.9698 13.6541 26.6735C11.0171 26.3772 8.55897 25.1938 6.68258 23.3174C4.80619 21.4411 3.62285 18.9829 3.32652 16.3459C3.03019 13.7089 3.63843 11.0494 5.05157 8.80334C6.46471 6.55729 8.59891 4.8579 11.1044 3.98368C13.6099 3.10947 16.338 3.11229 18.8417 3.99168C18.9306 3.44182 19.0931 2.90645 19.325 2.40001C16.4636 1.4106 13.3512 1.42066 10.4963 2.42854C7.64128 3.43643 5.21242 5.38257 3.60635 7.94913C2.00027 10.5157 1.31191 13.551 1.65368 16.5593C1.99544 19.5676 3.34715 22.3711 5.48802 24.512C7.6289 26.6529 10.4324 28.0046 13.4407 28.3463C16.449 28.6881 19.4843 27.9998 22.0509 26.3937C24.6175 24.7876 26.5636 22.3587 27.5715 19.5038C28.5794 16.6488 28.5894 13.5364 27.6 10.675Z" fill="white"/>
<path d="M24.9999 9.16668C27.3011 9.16668 29.1666 7.3012 29.1666 5.00001C29.1666 2.69882 27.3011 0.833344 24.9999 0.833344C22.6987 0.833344 20.8333 2.69882 20.8333 5.00001C20.8333 7.3012 22.6987 9.16668 24.9999 9.16668Z" fill="white"/>
</svg>
