<svg width="70" height="104" viewBox="0 0 70 104" fill="none" xmlns="http://www.w3.org/2000/svg">
<path d="M16.0984 27.4223L16.0875 27.4277C15.9195 26.4031 15.8382 25.3569 15.8382 24.3215C15.8382 23.3945 15.9086 22.462 16.0388 21.5513C15.9086 22.4566 15.8436 23.3728 15.8436 24.2889C15.8436 25.3406 15.9303 26.3923 16.0984 27.4223ZM57.3145 18.1198C57.3416 18.0981 57.3633 18.0764 57.3904 18.0493C57.3524 18.0873 57.3145 18.1252 57.2711 18.1632L53.7203 21.1935V21.1881L57.3145 18.1198ZM28.2252 6.41037H28.2198L29.0601 1.86755C29.0709 1.81334 29.0818 1.76455 29.098 1.71576C29.0926 1.74286 29.0818 1.77539 29.0763 1.8025L28.2252 6.41037ZM25.2979 36.0363L23.5957 34.6377L18.565 36.4212C17.6434 35.1798 16.8682 33.8462 16.2556 32.4313L20.3051 28.9673L19.9473 26.7934C19.8118 25.9749 19.7413 25.1346 19.7413 24.2944C19.7413 23.4541 19.8118 22.6138 19.9473 21.7953L20.2997 19.6323L16.2502 16.1682C16.8682 14.7588 17.638 13.4198 18.5595 12.1784L23.5903 13.9619L25.2925 12.5632C26.5881 11.5007 28.0355 10.6659 29.5913 10.0804L31.6567 9.3052L32.6271 4.0468C34.1582 3.87333 35.7039 3.87333 37.235 4.0468L38.2054 9.31605L40.2599 10.0913C41.8049 10.6767 43.2415 11.5116 44.5263 12.5687L46.2285 13.9727L51.2917 12.1729C52.2133 13.4143 52.9885 14.7479 53.6011 16.1628L49.5082 19.6594L49.8606 21.8278C49.9961 22.6355 50.0611 23.4649 50.0611 24.2944C50.0611 25.1184 49.9907 25.9532 49.8606 26.7609L49.5082 28.9293L53.6011 32.4259C52.9831 33.8354 52.2133 35.1744 51.2917 36.4158L46.2285 34.616L44.5263 36.02C43.2415 37.0771 41.8049 37.912 40.2599 38.4975L38.2108 39.2835L37.2404 44.5528C35.7117 44.7262 34.1558 44.7262 32.6325 44.5528L31.6622 39.2943L29.5968 38.5191C28.0355 37.9337 26.5935 37.0988 25.2979 36.0363ZM34.8985 33.3095C36.5519 33.3095 38.1078 32.8867 39.4685 32.144C42.4446 30.5285 44.4666 27.3789 44.4666 23.7523C44.4666 18.483 40.1949 14.2112 34.9256 14.2112C31.299 14.2112 28.1493 16.2333 26.5339 19.2094C25.7912 20.5647 25.3684 22.1205 25.3684 23.7794C25.3684 29.0432 29.6347 33.3095 34.8985 33.3095ZM51.4489 40.6008C51.7471 40.7038 52.0561 40.7255 52.3488 40.6659C52.0398 40.7309 51.7146 40.7201 51.4001 40.6117L46.9874 39.0396C46.9928 39.0341 47.0037 39.0287 47.0091 39.0233L51.4489 40.6008ZM12.5476 18.1198L16.0984 21.1556C16.0984 21.1664 16.093 21.1827 16.093 21.1935L12.5476 18.1632C12.1627 17.8325 11.9459 17.3554 11.9405 16.8621C11.9567 17.3392 12.1736 17.8 12.5476 18.1198Z" fill="url(#paint0_linear_6_150)"/>
<path d="M11.9512 31.591C11.9241 31.8458 11.9512 32.106 12.0434 32.3554L12.0922 32.4963C13.0722 35.2273 14.5357 37.7595 16.4128 39.972L16.5103 40.0858C16.7378 40.3546 17.0416 40.5478 17.3815 40.6398C17.7213 40.7318 18.0812 40.7182 18.4131 40.6008L22.8204 39.0341C24.4373 40.3662 26.2636 41.4213 28.2252 42.1566L29.0763 46.7645C29.1405 47.1112 29.3087 47.4302 29.5585 47.679C29.8083 47.9279 30.1279 48.0948 30.4749 48.1577L30.6213 48.1848C32.0381 48.4409 33.475 48.5697 34.9147 48.5697H34.8985C33.4511 48.5697 32.0036 48.4396 30.5942 48.1848L30.4478 48.1577C30.1008 48.0948 29.7812 47.9279 29.5314 47.679C29.2816 47.4302 29.1134 47.1112 29.0492 46.7645L28.1981 42.162C26.2357 41.4248 24.425 40.3785 22.7987 39.045L18.3968 40.6116C18.0649 40.729 17.7051 40.7427 17.3652 40.6507C17.0253 40.5587 16.7215 40.3654 16.4941 40.0966L16.3965 39.9828C14.51 37.7547 13.0626 35.2448 12.0813 32.518L12.0326 32.3771C11.9458 32.1223 11.9187 31.8512 11.9512 31.591Z" fill="black" fill-opacity="0.15"/>
<path d="M25.3846 23.7523C25.3846 22.1097 25.802 20.5593 26.5338 19.2095C28.1493 16.2333 31.2989 14.2113 34.9256 14.2113C40.1948 14.2113 44.4666 18.483 44.4666 23.7523C44.4666 27.379 42.4446 30.5286 39.4684 32.144C38.1186 32.8759 36.5736 33.2933 34.9256 33.2933C29.6564 33.2933 25.3846 29.0215 25.3846 23.7523ZM40.9972 23.7523C40.9972 22.1314 40.3629 20.6081 39.2191 19.4588C38.0698 18.3096 36.5465 17.6807 34.9256 17.6807C33.3047 17.6807 31.7814 18.3096 30.6321 19.4588C30.0674 20.022 29.6196 20.6912 29.3144 21.428C29.0093 22.1649 28.8528 22.9548 28.854 23.7523C28.854 25.3732 29.4883 26.8965 30.6321 28.0457C31.1953 28.6105 31.8645 29.0583 32.6013 29.3635C33.3382 29.6686 34.1281 29.8251 34.9256 29.8238C36.5465 29.8238 38.0698 29.1896 39.2191 28.0457C39.7838 27.4826 40.2316 26.8134 40.5368 26.0766C40.8419 25.3397 40.9984 24.5498 40.9972 23.7523Z" fill="white"/>
<path d="M30.4749 48.1577C30.128 48.0949 29.8083 47.9279 29.5585 47.6791C29.3087 47.4302 29.1405 47.1113 29.0763 46.7645L28.2252 42.1567C26.2636 41.4213 24.4373 40.3662 22.8204 39.0341L18.4131 40.6008C18.0812 40.7182 17.7214 40.7318 17.3815 40.6399C17.0416 40.5479 16.7378 40.3546 16.5104 40.0858L16.4128 39.972C14.5263 37.7439 13.0734 35.2286 12.0922 32.4964L12.0434 32.3554C11.9513 32.1061 11.9242 31.8459 11.9513 31.5911C12.0001 31.1628 12.2061 30.7562 12.5476 30.4581L16.0875 27.4277L16.0984 27.4223C15.9303 26.3923 15.8436 25.3406 15.8436 24.2889C15.8436 23.3728 15.9086 22.4512 16.0387 21.5513C16.055 21.4321 16.0767 21.3128 16.0929 21.1935C16.0929 21.1827 16.0984 21.1664 16.0984 21.1556L12.5476 18.1198C12.1735 17.8 11.9567 17.3392 11.9404 16.8621C11.935 16.6453 11.9675 16.423 12.0434 16.2116L12.0922 16.0707C13.0697 13.3386 14.5335 10.8059 16.4128 8.59505L16.5104 8.4812C16.7383 8.21315 17.0422 8.02045 17.3819 7.92852C17.7215 7.83658 18.0811 7.84972 18.4131 7.96621L22.8204 9.53288C24.4467 8.19931 26.2574 7.14763 28.2198 6.41037H28.2252L29.0763 1.80249C29.0817 1.77539 29.0871 1.74286 29.098 1.71576C29.1763 1.388 29.3481 1.09004 29.5925 0.858102C29.837 0.626164 30.1435 0.470241 30.4749 0.409288L30.6213 0.382183C33.4457 -0.127394 36.4164 -0.127394 39.2407 0.382183L39.3871 0.409288C39.7341 0.472154 40.0537 0.639103 40.3035 0.887953C40.5533 1.1368 40.7215 1.45578 40.7857 1.80249L41.6423 6.43205C43.589 7.16947 45.4019 8.22059 47.0091 9.54373L51.4489 7.96621C51.7809 7.8488 52.1407 7.83518 52.4806 7.92717C52.8204 8.01916 53.1243 8.2124 53.3517 8.4812L53.4493 8.59505C55.3263 10.8075 56.7898 13.3397 57.7698 16.0707L57.8186 16.2116C57.9316 16.5267 57.9513 16.8676 57.8753 17.1936C57.7993 17.5195 57.631 17.8167 57.3904 18.0493C57.3633 18.071 57.3416 18.0981 57.3145 18.1198L53.7203 21.1881V21.1935C53.8884 22.2127 53.9697 23.2481 53.9697 24.2835C53.9697 25.3244 53.8884 26.3652 53.7203 27.3789L57.3145 30.4472C57.5823 30.6765 57.774 30.9819 57.864 31.3227C57.9541 31.6636 57.9382 32.0238 57.8186 32.3554L57.7698 32.4964C56.7886 35.2286 55.3358 37.7494 53.4493 39.972L53.3517 40.0858C53.0861 40.3948 52.7337 40.5954 52.3488 40.6659C52.0561 40.7201 51.7471 40.7038 51.4489 40.6008L47.0091 39.0233C47.0037 39.0287 46.9928 39.0341 46.9874 39.0396C45.3774 40.3569 43.583 41.4031 41.6423 42.135L40.7857 46.7645C40.7215 47.1113 40.5533 47.4302 40.3035 47.6791C40.0537 47.9279 39.7341 48.0949 39.3871 48.1577L39.2407 48.1848C37.8259 48.4396 36.3784 48.5697 34.931 48.5697H34.9148C33.4728 48.5697 32.0253 48.4396 30.6213 48.1848L30.4749 48.1577ZM32.6325 44.5528C34.1636 44.7262 35.7093 44.7262 37.2404 44.5528L38.2107 39.2835L40.2599 38.4975C41.8049 37.912 43.2415 37.0772 44.5262 36.0201L46.2285 34.616L51.2917 36.4158C52.2133 35.1744 52.9831 33.8354 53.6011 32.4259L49.5082 28.9293L49.8605 26.7609C49.9906 25.9532 50.0611 25.1184 50.0611 24.2944C50.0611 23.4649 49.9961 22.6355 49.8605 21.8278L49.5082 19.6594L53.6011 16.1628C52.9885 14.7479 52.2133 13.4143 51.2917 12.1729L46.2285 13.9727L44.5262 12.5687C43.2415 11.5116 41.8049 10.6767 40.2599 10.0913L38.2053 9.31604L37.235 4.0468C35.7117 3.87333 34.1558 3.87333 32.6271 4.0468L31.6567 9.3052L29.5913 10.0804C28.0355 10.6659 26.5881 11.5007 25.2924 12.5632L23.5902 13.9619L18.5595 12.1783C17.6379 13.4198 16.8681 14.7588 16.2501 16.1682L20.2997 19.6323L19.9473 21.7953C19.8118 22.6138 19.7413 23.4541 19.7413 24.2944C19.7413 25.1346 19.8118 25.9749 19.9473 26.7935L20.3051 28.9673L16.2556 32.4313C16.8695 33.8456 17.6444 35.1844 18.5649 36.4212L23.5956 34.6377L25.2978 36.0363C26.5935 37.0988 28.0355 37.9337 29.5967 38.5191L31.6621 39.2944L32.6325 44.5528Z" fill="white"/>
<path d="M53.6699 46.2215H15.8556C15.8556 46.2215 0.999969 59.6145 0.999969 85.3862V88.0643C0.999969 92.7613 3.74957 97.0573 8.06581 98.9129C12.9708 101.022 21.1698 102.943 34.7627 102.943C48.3555 102.943 56.5545 101.022 61.4595 98.9129C65.7758 97.0573 68.5254 92.7613 68.5254 88.0643V85.3862C68.5255 59.6145 53.6699 46.2215 53.6699 46.2215Z" fill="url(#paint1_linear_6_150)"/>
<path d="M53.6699 46.2215L54.0047 45.8501L53.862 45.7215H53.6699H15.8556H15.6635L15.5208 45.8501L15.8556 46.2215C15.5208 45.8501 15.5206 45.8503 15.5203 45.8506L15.5194 45.8513L15.5167 45.8538L15.5072 45.8624L15.4726 45.8945C15.4426 45.9223 15.3989 45.9633 15.3426 46.0174C15.2299 46.1254 15.0664 46.2858 14.8593 46.4982C14.4451 46.923 13.8564 47.556 13.1515 48.3952C11.7419 50.0737 9.86659 52.5782 7.99251 55.8934C4.24349 62.5252 0.499969 72.4004 0.499969 85.3862V88.0643C0.499969 92.9553 3.36317 97.4354 7.86833 99.3723C12.8553 101.517 21.1272 103.443 34.7627 103.443C48.3982 103.443 56.67 101.517 61.657 99.3723C66.1622 97.4354 69.0254 92.9553 69.0254 88.0643V85.3862C69.0255 72.4004 65.282 62.5252 61.533 55.8934C59.6589 52.5782 57.7836 50.0737 56.374 48.3952C55.6691 47.556 55.0804 46.923 54.6662 46.4982C54.4591 46.2858 54.2956 46.1254 54.1829 46.0174C54.1266 45.9633 54.0829 45.9223 54.0529 45.8945L54.0183 45.8624L54.0088 45.8538L54.0061 45.8513L54.0052 45.8506C54.0049 45.8503 54.0047 45.8501 53.6699 46.2215Z" stroke="#5E0FB3" stroke-opacity="0.88"/>
<path d="M25.3091 70.5306C25.0052 70.5306 24.7014 70.4293 24.4488 70.2213C23.8734 69.7459 23.7939 68.8951 24.2678 68.3199C24.319 68.2578 29.3606 62.0927 29.3606 57.0256C29.366 56.7001 29.5308 49.5424 33.8078 45.2667C34.3358 44.7387 35.1893 44.7387 35.7174 45.2667C36.2454 45.7947 36.2454 46.6483 35.7174 47.1763C32.2061 50.6889 32.0614 56.9851 32.0614 57.0486C32.0614 63.0692 26.5824 69.7596 26.3501 70.0418C26.0829 70.3631 25.6967 70.5306 25.3091 70.5306Z" fill="white"/>
<path d="M42.8644 65.1285C42.7456 65.1285 42.624 65.1123 42.5038 65.0786C42.2986 65.0219 37.4637 63.6038 37.4637 57.0256C37.4623 56.9865 37.3016 50.6715 33.8078 47.1763C33.2797 46.6483 33.2797 45.7947 33.8078 45.2667C34.3358 44.7387 35.1893 44.7387 35.7174 45.2667C39.9944 49.5424 40.1591 56.7001 40.1646 57.0027C40.1646 61.4905 43.1168 62.4425 43.2424 62.4818C43.9501 62.6978 44.3605 63.4434 44.1539 64.1537C43.9827 64.7423 43.4492 65.1285 42.8644 65.1285Z" fill="white"/>
<path d="M41.5153 86.7368C41.5153 90.4656 38.4915 93.4893 34.7628 93.4893C31.0342 93.4893 28.0103 90.4655 28.0103 86.7368C28.0103 83.008 31.0342 79.9843 34.7628 79.9843C38.4915 79.9843 41.5153 83.008 41.5153 86.7368Z" fill="white"/>
<path d="M44.2163 74.5822C40.7401 74.5822 37.9108 77.2185 37.5381 80.5947C39.8799 81.6548 41.5153 83.9994 41.5153 86.7368C41.5153 86.9908 41.4681 87.2312 41.441 87.4768C42.2891 87.8617 43.2237 88.0873 44.2163 88.0873C47.9451 88.0873 50.9688 85.0634 50.9688 81.3348C50.9688 77.6059 47.945 74.5822 44.2163 74.5822Z" fill="white" fill-opacity="0.6"/>
<path d="M28.0101 86.7368C28.0101 83.8575 29.8211 81.4158 32.3587 80.4448C31.1636 78.5515 29.0648 77.2833 26.6596 77.2833C22.9307 77.2833 19.907 80.3071 19.907 84.0358C19.907 87.7646 22.9309 90.7883 26.6596 90.7883C27.509 90.7883 28.314 90.614 29.0635 90.3278C28.4059 89.2852 28.0101 88.0602 28.0101 86.7368Z" fill="white" fill-opacity="0.6"/>
<path d="M60.385 30.4661C60.0527 26.6212 55.5137 24.6496 52.4237 26.963C50.4789 28.4202 47.5794 30.0151 44.2167 30.0151C41.6305 30.0151 39.6627 29.2737 38.2096 28.3391C36.1027 26.9833 33.4234 26.9833 31.3167 28.3391C29.8635 29.2737 27.8957 30.0151 25.3096 30.0151C21.9455 30.0151 19.0472 28.4202 17.1012 26.963C14.0126 24.6496 9.47218 26.6212 9.14126 30.4661C9.13585 30.5269 9.13043 30.5876 9.12637 30.6499C9.09525 31.1117 9.24921 31.5709 9.51804 31.9477L15.856 40.8192H34.7631H53.6702L60.0069 31.9477C60.2769 31.5709 60.4295 31.1117 60.3985 30.6499C60.3943 30.5876 60.3903 30.5269 60.385 30.4661Z" fill="url(#paint2_linear_6_150)"/>
<path d="M59.8869 30.5093L59.8868 30.5092C59.5893 27.0662 55.5083 25.2782 52.7233 27.3632C50.7387 28.8502 47.734 30.5151 44.2167 30.5151C41.5287 30.5151 39.4679 29.7429 37.9391 28.7597L37.939 28.7596C35.997 27.5098 33.5291 27.5098 31.5872 28.7596L31.5871 28.7597C30.0584 29.7429 27.9975 30.5151 25.3096 30.5151C21.7908 30.5151 18.7872 28.8501 16.8015 27.3632L16.8015 27.3632C14.0178 25.2782 9.93572 27.0663 9.63942 30.509L9.63929 30.5105C9.63379 30.5721 9.62892 30.627 9.62531 30.6824L9.62524 30.6835C9.60304 31.0129 9.71275 31.3596 9.92488 31.657L59.8869 30.5093ZM59.8869 30.5093C59.8915 30.563 59.8952 30.6173 59.8993 30.6788L59.8996 30.6833C59.8996 30.6834 59.8996 30.6835 59.8997 30.6836C59.9217 31.014 59.8127 31.3603 59.6004 31.6564L59.6 31.6571L53.4129 40.3192H34.7631H16.1133L9.92506 31.6573L59.8869 30.5093Z" stroke="#5E0FB2" stroke-opacity="0.88"/>
<path d="M55.0204 46.2214H14.5051C13.0195 46.2214 11.8041 45.006 11.8041 43.5204C11.8041 42.0348 13.0195 40.8194 14.5051 40.8194H55.0205C56.5061 40.8194 57.7215 42.0348 57.7215 43.5204C57.7215 45.006 56.506 46.2214 55.0204 46.2214Z" fill="white"/>
<defs>
<linearGradient id="paint0_linear_6_150" x1="57.3904" y1="23.1993" x2="11.9405" y2="23.1993" gradientUnits="userSpaceOnUse">
<stop stop-color="#9148BD"/>
<stop offset="1" stop-color="#7873F5"/>
</linearGradient>
<linearGradient id="paint1_linear_6_150" x1="0.999969" y1="74.5822" x2="68.5254" y2="74.5822" gradientUnits="userSpaceOnUse">
<stop stop-color="#CC208E"/>
<stop offset="1" stop-color="#6713D2"/>
</linearGradient>
<linearGradient id="paint2_linear_6_150" x1="9.12241" y1="33.3958" x2="60.4025" y2="33.3958" gradientUnits="userSpaceOnUse">
<stop stop-color="#CC208E"/>
<stop offset="1" stop-color="#6713D2"/>
</linearGradient>
</defs>
</svg>
