<svg width="34" height="34" viewBox="0 0 34 34" fill="none" xmlns="http://www.w3.org/2000/svg">
<path d="M31.5061 1.68793C30.9718 1.15355 30.3375 0.729651 29.6394 0.440443C28.9413 0.151235 28.193 0.00238037 27.4374 0.00238037C26.6817 0.00238037 25.9335 0.151235 25.2353 0.440443C24.5372 0.729651 23.9029 1.15355 23.3686 1.68793L11.2953 13.7613C11.1543 13.9017 11.0541 14.0777 11.0055 14.2706L8.81033 23.0512C8.76457 23.235 8.76714 23.4274 8.81777 23.6099C8.8684 23.7924 8.96538 23.9586 9.09928 24.0925C9.23318 24.2264 9.39945 24.3234 9.58191 24.374C9.76438 24.4247 9.95685 24.4272 10.1406 24.3815L18.9212 22.1863C19.1147 22.1387 19.2915 22.0393 19.4327 21.8988L31.5061 9.82538C32.0405 9.2911 32.4644 8.65679 32.7536 7.95868C33.0428 7.26056 33.1916 6.51231 33.1916 5.75665C33.1916 5.001 33.0428 4.25275 32.7536 3.55463C32.4644 2.85651 32.0405 2.2222 31.5061 1.68793ZM24.9206 3.2399C25.5881 2.57242 26.4934 2.19743 27.4374 2.19743C28.3813 2.19743 29.2866 2.57242 29.9541 3.2399C30.6216 3.90739 30.9966 4.81269 30.9966 5.75665C30.9966 6.70062 30.6216 7.60592 29.9541 8.2734L18.0937 20.1317L11.3831 21.8088L13.0602 15.0982L24.9206 3.2399ZM15.3629 4.65798C15.9775 4.65798 16.579 4.70188 17.1695 4.78091L19.0442 2.90624C15.7855 2.1029 12.3535 2.38853 9.27252 3.71946C6.19151 5.0504 3.63098 7.35345 1.98217 10.2767C0.333368 13.2 -0.313032 16.5826 0.141747 19.9079C0.596526 23.2331 2.12747 26.318 4.50065 28.6912C6.87383 31.0643 9.95873 32.5953 13.284 33.0501C16.6092 33.5048 19.9919 32.8584 22.9151 31.2096C25.8384 29.5608 28.1414 27.0003 29.4724 23.9193C30.8033 20.8383 31.0889 17.4063 30.2856 14.1476L28.4109 16.0223C28.7788 18.6791 28.3268 21.3849 27.1154 23.7778C25.904 26.1708 23.9908 28.1369 21.6318 29.4131C19.2728 30.6894 16.5804 31.2151 13.9146 30.9198C11.2487 30.6246 8.73659 29.5225 6.71404 27.7609C4.6915 25.9994 3.25496 23.6623 2.59653 21.0623C1.93809 18.4622 2.08915 15.7231 3.0295 13.2112C3.96985 10.6993 5.65467 8.53441 7.85866 7.00593C10.0626 5.47746 12.6808 4.65829 15.3629 4.65798Z" fill="#AAAAAA"/>
</svg>
