<svg width="23" height="24" viewBox="0 0 23 24" fill="none" xmlns="http://www.w3.org/2000/svg">
<path d="M18.5484 15C21.0116 15 23 17.01 23 19.5C23 21.99 21.0116 24 18.5484 24C16.0852 24 14.0968 21.99 14.0968 19.5C14.0968 19.14 14.1413 18.81 14.2303 18.465L7.73097 15.015C6.91484 15.93 5.75742 16.5 4.45161 16.5C1.98839 16.5 0 14.49 0 12C0 9.51 1.98839 7.5 4.45161 7.5C5.75742 7.5 6.91484 8.085 7.73097 8.985L14.2303 5.535C14.1413 5.19 14.0968 4.86 14.0968 4.5C14.0968 2.01 16.0852 0 18.5484 0C21.0116 0 23 2.01 23 4.5C23 6.99 21.0116 9 18.5484 9C17.2426 9 16.0852 8.415 15.269 7.515L8.76968 10.965C8.9494 11.643 8.9494 12.357 8.76968 13.035L15.269 16.485C16.0852 15.57 17.2426 15 18.5484 15Z" fill="white"/>
</svg>
